<svg width="31" height="32" viewBox="0 0 31 32" fill="none" xmlns="http://www.w3.org/2000/svg">
<path fill-rule="evenodd" clip-rule="evenodd" d="M14.6056 2.34684e-07C16.117 -0.00039332 17.587 0.494204 18.7909 1.40818C19.9947 2.32215 20.8661 3.60522 21.2718 5.06121L21.3518 5.37638L24.2268 4.6584C24.4369 4.6061 24.6557 4.59878 24.8689 4.63692C25.0821 4.67505 25.2848 4.7578 25.4637 4.87972C25.6427 5.00164 25.7939 5.16 25.9074 5.34441C26.0209 5.52883 26.0942 5.73514 26.1224 5.94984L26.1363 6.14971V8.93245C27.0034 9.7631 27.7138 10.7432 28.2333 11.8259L28.4455 12.2994H29.2111C29.5877 12.2995 29.9511 12.4377 30.2325 12.6879C30.5139 12.9382 30.6937 13.283 30.7378 13.657L30.7485 13.8368V18.4491C30.7486 18.7022 30.6861 18.9513 30.5668 19.1745C30.4475 19.3976 30.2749 19.5878 30.0644 19.7283L29.8983 19.8236L28.1026 20.723C27.3687 22.1461 26.3036 23.372 24.997 24.2975L24.5988 24.565V26.1363C24.5988 26.5128 24.4605 26.8763 24.2103 27.1577C23.9601 27.4391 23.6153 27.6189 23.2413 27.6629L23.0614 27.6737H18.4491C18.0726 27.6736 17.7091 27.5354 17.4277 27.2852C17.1463 27.0349 16.9665 26.6901 16.9225 26.3161L16.9117 26.1363H15.3743C15.3742 26.5128 15.236 26.8763 14.9857 27.1577C14.7355 27.4391 14.3907 27.6189 14.0167 27.6629L13.8368 27.6737H9.22456C8.84799 27.6736 8.48454 27.5354 8.20314 27.2852C7.92173 27.0349 7.74195 26.6901 7.6979 26.3161L7.68713 26.1363V24.565C6.57602 23.8554 5.61629 22.933 4.86323 21.8509C4.11016 20.7688 3.57865 19.5484 3.29932 18.26C2.39251 17.9906 1.59049 17.4489 1.00195 16.7082C0.413421 15.9676 0.0668515 15.064 0.00922462 14.1197L0 13.8368V13.0681C0.000434642 12.6763 0.150482 12.2994 0.419484 12.0144C0.688487 11.7295 1.05614 11.558 1.44733 11.535C1.83851 11.5121 2.2237 11.6394 2.5242 11.8909C2.82469 12.1424 3.01781 12.4991 3.06409 12.8882L3.07485 13.0681V13.8368C3.0769 14.0664 3.12303 14.2791 3.21322 14.4749C3.44752 13.0906 3.97085 11.7713 4.74913 10.6028C5.5274 9.43433 6.54315 8.44295 7.73018 7.69328C7.6211 6.72545 7.71759 5.74549 8.01335 4.81752C8.30911 3.88955 8.79748 3.03448 9.44648 2.30827C10.0955 1.58205 10.8905 1.00105 11.7796 0.60328C12.6686 0.205509 13.6316 -6.75252e-05 14.6056 2.34684e-07ZM21.524 12.2994C21.1162 12.2994 20.7252 12.4614 20.4368 12.7497C20.1485 13.038 19.9865 13.4291 19.9865 13.8368C19.9865 14.2446 20.1485 14.6356 20.4368 14.924C20.7252 15.2123 21.1162 15.3743 21.524 15.3743C21.9317 15.3743 22.3228 15.2123 22.6111 14.924C22.8994 14.6356 23.0614 14.2446 23.0614 13.8368C23.0614 13.4291 22.8994 13.038 22.6111 12.7497C22.3228 12.4614 21.9317 12.2994 21.524 12.2994ZM14.6056 3.07485C13.6743 3.07485 12.7748 3.41293 12.074 4.02628C11.3733 4.63962 10.9191 5.4865 10.7958 6.40953C11.5408 6.23625 12.3032 6.14907 13.0681 6.14971H18.26L18.3676 6.12357C18.1853 5.26101 17.712 4.48735 17.0271 3.93228C16.3421 3.37721 15.4872 3.07449 14.6056 3.07485Z" fill="white"/>
</svg>
