<svg width="32" height="32" viewBox="0 0 32 32" fill="none" xmlns="http://www.w3.org/2000/svg">
<path d="M4.83147 24.9023C4.70463 24.7793 4.53489 24.7105 4.35822 24.7105C4.18155 24.7105 4.01182 24.7793 3.88497 24.9023L0.672208 28.1284C0.459382 28.3369 0.290305 28.5858 0.17488 28.8605C0.059454 29.1352 0 29.4301 0 29.7281C0 30.026 0.059454 30.321 0.17488 30.5957C0.290305 30.8704 0.459382 31.1193 0.672208 31.3278C0.880733 31.5406 1.12963 31.7097 1.40432 31.8251C1.67901 31.9405 1.97397 32 2.27192 32C2.56988 32 2.86484 31.9405 3.13953 31.8251C3.41422 31.7097 3.66312 31.5406 3.87164 31.3278L7.09774 28.115C7.22072 27.9882 7.28949 27.8184 7.28949 27.6418C7.28949 27.4651 7.22072 27.2954 7.09774 27.1685L4.83147 24.9023ZM14.843 19.4232L12.5768 17.157C12.4522 17.0348 12.2847 16.9664 12.1102 16.9664C11.9357 16.9664 11.7682 17.0348 11.6436 17.157L6.24455 22.556C6.1255 22.6822 6.05918 22.8491 6.05918 23.0226C6.05918 23.1961 6.1255 23.363 6.24455 23.4892L8.51082 25.7554C8.63542 25.8776 8.80293 25.946 8.9774 25.946C9.15188 25.946 9.31939 25.8776 9.44399 25.7554L14.843 20.3564C14.9621 20.2302 15.0284 20.0633 15.0284 19.8898C15.0284 19.7163 14.9621 19.5494 14.843 19.4232ZM31.2135 11.6246C31.463 11.3766 31.6609 11.0816 31.7959 10.7567C31.9309 10.4318 32.0003 10.0834 32 9.73161C31.997 9.02563 31.7142 8.34966 31.2135 7.85194L24.1481 0.786528C23.6503 0.285833 22.9744 0.00297736 22.2684 8.37093e-07C21.9166 -0.00027794 21.5682 0.0690766 21.2433 0.204067C20.9184 0.339058 20.6234 0.537015 20.3754 0.786528L14.2298 6.93211C13.9432 7.21891 13.7258 7.5673 13.5942 7.95077C13.4625 8.33424 13.42 8.74269 13.4699 9.14505L14.1765 14.9307C14.2641 15.6676 14.597 16.3536 15.1217 16.8783C15.6464 17.403 16.3324 17.7359 17.0693 17.8235L22.8549 18.5301C23.2573 18.58 23.6658 18.5375 24.0492 18.4058C24.4327 18.2742 24.7811 18.0568 25.0679 17.7702L31.2135 11.6246ZM17.016 9.86492C16.7515 9.86185 16.4984 9.75679 16.3094 9.57164C16.2151 9.47973 16.1401 9.36986 16.089 9.24851C16.0378 9.12717 16.0114 8.9968 16.0114 8.8651C16.0114 8.7334 16.0378 8.60303 16.089 8.48168C16.1401 8.36034 16.2151 8.25047 16.3094 8.15856L20.0821 4.38589C20.2716 4.20928 20.5223 4.11314 20.7813 4.11771C21.0404 4.12228 21.2875 4.22721 21.4707 4.41039C21.6539 4.59358 21.7588 4.84071 21.7634 5.09974C21.7679 5.35876 21.6718 5.60944 21.4952 5.79897L17.7225 9.57164C17.5314 9.75341 17.2797 9.8579 17.016 9.86492ZM18.669 14.2775C18.4053 14.2705 18.1536 14.166 17.9625 13.9842C17.7776 13.7928 17.6742 13.5371 17.6742 13.271C17.6742 13.0049 17.7776 12.7492 17.9625 12.5578L24.628 5.95895C24.8154 5.77171 25.0696 5.66654 25.3345 5.66654C25.5995 5.66654 25.8536 5.77171 26.0411 5.95895C26.1354 6.05086 26.2103 6.16073 26.2615 6.28207C26.3127 6.40342 26.3391 6.53379 26.3391 6.66549C26.3391 6.79719 26.3127 6.92756 26.2615 7.0489C26.2103 7.17025 26.1354 7.28012 26.0411 7.37203L19.4556 14.0375C19.3469 14.1276 19.2214 14.1952 19.0863 14.2364C18.9513 14.2775 18.8095 14.2915 18.669 14.2775ZM27.5608 11.9179L23.7881 15.6906C23.6963 15.7846 23.5863 15.8591 23.4649 15.9095C23.3434 15.9599 23.213 15.9852 23.0816 15.9838C22.9502 15.9845 22.82 15.9588 22.6987 15.9085C22.5774 15.8581 22.4673 15.784 22.375 15.6906C22.1878 15.5031 22.0826 15.249 22.0826 14.984C22.0826 14.7191 22.1878 14.4649 22.375 14.2775L26.1477 10.5048C26.3372 10.3282 26.5879 10.2321 26.8469 10.2366C27.106 10.2412 27.3531 10.3461 27.5363 10.5293C27.7195 10.7125 27.8244 10.9596 27.829 11.2187C27.8335 11.4777 27.7374 11.7284 27.5608 11.9179Z" fill="white"/>
</svg>
