<svg width="38" height="32" viewBox="0 0 38 32" fill="none" xmlns="http://www.w3.org/2000/svg">
<path fill-rule="evenodd" clip-rule="evenodd" d="M13.2278 29.1181C7.6361 24.8735 0 17.8617 0 11.2321C0 0.156419 10.45 -3.97909 19 4.57428C27.55 -3.97909 38 0.156419 38 11.2321C38 17.8617 30.362 24.8735 24.7722 29.1181C22.2414 31.0381 20.976 32 19 32C17.024 32 15.7586 31.04 13.2278 29.1181ZM27.55 6.1178C27.9279 6.1178 28.2904 6.26653 28.5576 6.53129C28.8249 6.79605 28.975 7.15513 28.975 7.52955V9.88248H31.35C31.7279 9.88248 32.0904 10.0312 32.3576 10.296C32.6249 10.5607 32.775 10.9198 32.775 11.2942C32.775 11.6687 32.6249 12.0277 32.3576 12.2925C32.0904 12.5573 31.7279 12.706 31.35 12.706H28.975V15.0589C28.975 15.4333 28.8249 15.7924 28.5576 16.0572C28.2904 16.3219 27.9279 16.4707 27.55 16.4707C27.1721 16.4707 26.8096 16.3219 26.5424 16.0572C26.2751 15.7924 26.125 15.4333 26.125 15.0589V12.706H23.75C23.3721 12.706 23.0096 12.5573 22.7424 12.2925C22.4751 12.0277 22.325 11.6687 22.325 11.2942C22.325 10.9198 22.4751 10.5607 22.7424 10.296C23.0096 10.0312 23.3721 9.88248 23.75 9.88248H26.125V7.52955C26.125 7.15513 26.2751 6.79605 26.5424 6.53129C26.8096 6.26653 27.1721 6.1178 27.55 6.1178Z" fill="white"/>
</svg>
