<svg width="30" height="32" viewBox="0 0 30 32" fill="none" xmlns="http://www.w3.org/2000/svg">
<path d="M21.524 7.1651e-09C22.7004 -6.55278e-05 23.8324 0.449428 24.6884 1.25651C25.5444 2.0636 26.0596 3.16726 26.1286 4.34169L26.1363 4.61228V19.9865H27.2893C28.284 19.9865 29.1035 20.743 29.2019 21.7115L29.2111 21.9083V24.5988C29.2112 25.7753 28.7617 26.9073 27.9546 27.7633C27.1475 28.6192 26.0438 29.1344 24.8694 29.2034L24.5988 29.2111H9.22456C8.04811 29.2112 6.91609 28.7617 6.06014 27.9546C5.20418 27.1475 4.68899 26.0438 4.61997 24.8694L4.61228 24.5988V9.22456H1.92178C1.44601 9.22478 0.987077 9.04851 0.63378 8.72986C0.280483 8.41121 0.0579433 7.97284 0.00922463 7.49957L7.1651e-09 7.30278V4.61228C-6.55278e-05 3.43582 0.449428 2.30381 1.25651 1.44785C2.0636 0.591899 3.16726 0.076706 4.34169 0.00768732L4.61228 7.1651e-09H21.524ZM26.1363 23.0614H12.2994V24.5988C12.2994 25.1369 12.2072 25.655 12.0381 26.1363H24.5988C25.0066 26.1363 25.3976 25.9743 25.686 25.686C25.9743 25.3976 26.1363 25.0066 26.1363 24.5988V23.0614ZM15.3743 13.8368H12.2994C11.9076 13.8373 11.5307 13.9873 11.2457 14.2563C10.9608 14.5253 10.7893 14.893 10.7663 15.2842C10.7434 15.6754 10.8706 16.0605 11.1222 16.361C11.3737 16.6615 11.7304 16.8547 12.1195 16.9009L12.2994 16.9117H15.3743C15.7661 16.9113 16.143 16.7612 16.428 16.4922C16.7129 16.2232 16.8844 15.8556 16.9073 15.4644C16.9303 15.0732 16.803 14.688 16.5515 14.3875C16.3 14.087 15.9433 13.8939 15.5541 13.8476L15.3743 13.8368ZM18.4491 7.68713H12.2994C11.8917 7.68713 11.5006 7.84911 11.2123 8.13744C10.924 8.42576 10.762 8.81681 10.762 9.22456C10.762 9.63231 10.924 10.0234 11.2123 10.3117C11.5006 10.6 11.8917 10.762 12.2994 10.762H18.4491C18.8569 10.762 19.2479 10.6 19.5362 10.3117C19.8246 10.0234 19.9865 9.63231 19.9865 9.22456C19.9865 8.81681 19.8246 8.42576 19.5362 8.13744C19.2479 7.84911 18.8569 7.68713 18.4491 7.68713ZM4.61228 3.07485C4.20453 3.07485 3.81348 3.23683 3.52516 3.52516C3.23683 3.81348 3.07485 4.20453 3.07485 4.61228V6.14971H4.61228V3.07485Z" fill="white"/>
</svg>
