<svg width="25" height="32" viewBox="0 0 25 32" fill="none" xmlns="http://www.w3.org/2000/svg">
<path d="M10.7143 16.8791V20.4681C10.7143 20.7267 10.8054 20.9485 10.9875 21.1333C11.1696 21.3182 11.3875 21.4107 11.6411 21.4107H13.3589C13.6363 21.4107 13.8601 21.3182 14.0304 21.1333C14.2006 20.9485 14.2857 20.7273 14.2857 20.4699V16.8791H17.8214C18.1 16.8791 18.3244 16.7867 18.4946 16.6018C18.6649 16.4169 18.75 16.1958 18.75 15.9384V14.1946C18.75 13.9131 18.6649 13.6859 18.4946 13.5131C18.3244 13.3403 18.1006 13.2539 17.8232 13.2539H14.2857V9.66489C14.2857 9.38212 14.2006 9.15434 14.0304 8.98153C13.8601 8.80873 13.6357 8.72233 13.3571 8.72233H11.6393C11.3857 8.72233 11.1679 8.80873 10.9857 8.98153C10.8036 9.15434 10.7131 9.38212 10.7143 9.66489V13.2539H7.17857C6.92381 13.2539 6.70536 13.3403 6.52321 13.5131C6.34107 13.6859 6.25 13.9131 6.25 14.1946V15.9384C6.25 16.1958 6.34107 16.4169 6.52321 16.6018C6.70536 16.7867 6.92321 16.8791 7.17679 16.8791H10.7143ZM12.5 32C12.3381 32 12.1673 31.9849 11.9875 31.9547C11.8077 31.9245 11.6411 31.8792 11.4875 31.8187C7.97202 30.4593 5.17857 28.1536 3.10714 24.9018C1.03571 21.6499 0 18.1298 0 14.3415V6.578C0 5.96171 0.175595 5.40403 0.526786 4.90495C0.877976 4.40588 1.32738 4.04335 1.875 3.81738L11.4911 0.192138C11.8387 0.0640458 12.175 0 12.5 0C12.825 0 13.1619 0.0640458 13.5107 0.192138L23.125 3.81738C23.6726 4.04335 24.122 4.40588 24.4732 4.90495C24.8244 5.40403 25 5.96171 25 6.578V14.3415C25 18.1298 23.9643 21.6499 21.8929 24.9018C19.8214 28.1536 17.028 30.4593 13.5125 31.8187C13.3577 31.8792 13.1911 31.9245 13.0125 31.9547C12.8339 31.9849 12.6631 32 12.5 32Z" fill="white"/>
</svg>
