<svg width="32" height="32" viewBox="0 0 32 32" fill="none" xmlns="http://www.w3.org/2000/svg">
<path fill-rule="evenodd" clip-rule="evenodd" d="M13.6604 0.85839C14.3043 0.304564 15.1254 0 15.9748 0C16.8241 0 17.6452 0.304564 18.2891 0.85839C18.762 1.26715 19.2293 1.67431 19.691 2.07987C20.305 1.95483 20.923 1.83461 21.5449 1.71919C22.3793 1.5615 23.2426 1.70817 23.978 2.13258C24.7135 2.55699 25.2724 3.23101 25.5534 4.0323C25.7618 4.6222 25.9621 5.20809 26.1545 5.78998C26.7492 5.99035 27.3456 6.19473 27.9435 6.40312C29.6027 6.985 30.5837 8.68738 30.2567 10.4114C30.1381 11.0398 30.0162 11.6617 29.8912 12.2773C30.308 12.7485 30.7248 13.2262 31.1416 13.7103C31.6954 14.3542 32 15.1754 32 16.0246C32 16.8739 31.6954 17.6951 31.1416 18.339C30.728 18.8199 30.3144 19.2943 29.9008 19.7624C30.0226 20.3651 30.1413 20.9735 30.2567 21.5874C30.4144 22.4218 30.2677 23.285 29.8433 24.0204C29.4189 24.7559 28.7448 25.3148 27.9435 25.5957C27.3456 25.8041 26.75 26.0084 26.1569 26.2088C25.9597 26.7923 25.7593 27.3782 25.5558 27.9665C25.2752 28.7687 24.7161 29.4436 23.9801 29.8686C23.2441 30.2935 22.38 30.4402 21.5449 30.282C20.9397 30.1679 20.3354 30.0492 19.7319 29.9261C19.27 30.3343 18.8051 30.739 18.3372 31.1404L17.5558 30.2291L18.3396 31.1428C17.6955 31.6963 16.8741 32.0004 16.0248 32C15.1755 31.9996 14.3545 31.6946 13.7108 31.1404C13.2379 30.7332 12.7707 30.3261 12.309 29.9189C11.695 30.044 11.077 30.165 10.4551 30.282C9.62038 30.4396 8.75688 30.2926 8.02137 29.8677C7.28586 29.4428 6.72712 28.7682 6.44664 27.9665C6.23825 27.3782 6.03787 26.7923 5.8455 26.2088C5.24771 26.0087 4.65136 25.8043 4.0565 25.5957C3.25517 25.3148 2.58113 24.7559 2.1567 24.0204C1.73228 23.285 1.5856 22.4218 1.7433 21.5874C1.86193 20.9606 1.98376 20.3387 2.1088 19.7215C1.68851 19.2469 1.27171 18.7692 0.858422 18.2885C0.304575 17.6446 0 16.8234 0 15.9742C0 15.1249 0.304575 14.3037 0.858422 13.6598C1.27201 13.1789 1.68559 12.7045 2.09918 12.2364C1.97735 11.6337 1.85872 11.0253 1.7433 10.4114C1.5856 9.57705 1.73228 8.71382 2.1567 7.97838C2.58113 7.24294 3.25517 6.68404 4.0565 6.40312C4.65444 6.19473 5.24997 5.99035 5.8431 5.78998C6.03867 5.20809 6.23905 4.6222 6.44424 4.0323C6.72477 3.23008 7.28388 2.55515 8.01991 2.13023C8.75594 1.70531 9.62002 1.5586 10.4551 1.71679C11.0642 1.8322 11.6686 1.95083 12.2681 2.07265C12.7266 1.6671 13.1891 1.26234 13.6604 0.85839ZM22.0234 12.5273C22.3777 12.2059 22.5898 11.757 22.613 11.2792C22.6362 10.8014 22.4687 10.334 22.1473 9.97978C21.9881 9.80438 21.796 9.66204 21.5818 9.56089C21.3677 9.45973 21.1357 9.40175 20.8991 9.39025C20.4213 9.36703 19.9539 9.53455 19.5996 9.85595C17.8323 11.4597 16.4833 12.9193 15.3436 14.6986C14.5972 15.8843 13.956 17.133 13.4271 18.4303L11.5732 16.5188C11.4084 16.3486 11.2116 16.2125 10.9942 16.1183C10.7768 16.0242 10.5429 15.9738 10.306 15.97C10.0691 15.9662 9.83379 16.0091 9.61346 16.0962C9.39314 16.1834 9.19214 16.3131 9.02194 16.4779C8.85174 16.6427 8.71567 16.8395 8.6215 17.0569C8.52733 17.2743 8.47691 17.5081 8.47312 17.745C8.46932 17.9819 8.51222 18.2172 8.59938 18.4375C8.68653 18.6579 8.81623 18.8588 8.98106 19.029L12.8115 22.9772C13.0257 23.1983 13.2928 23.3609 13.5876 23.4496C13.8823 23.5382 14.1948 23.5499 14.4954 23.4837C14.796 23.4174 15.0746 23.2753 15.3047 23.0709C15.5348 22.8665 15.7088 22.6066 15.81 22.316C16.6901 19.7913 17.4596 18.0769 18.3781 16.6438C19.287 15.2252 20.3907 14.0061 22.021 12.5273" fill="white"/>
</svg>
